<?xml version="1.0" encoding="UTF-8"?>
<svg width="19px" height="14px" viewBox="0 0 19 14" version="1.1" xmlns="http://www.w3.org/2000/svg" xmlns:xlink="http://www.w3.org/1999/xlink">
    <title>icon_check</title>
    <g id="Login" stroke="none" stroke-width="1" fill="none" fill-rule="evenodd">
        <g id="Login:-Small" transform="translate(-299.000000, -220.000000)" fill="#CFC8C3" fill-rule="nonzero">
            <g id="Login" transform="translate(9.000000, 110.000000)">
                <g id="Remember-Me?" transform="translate(200.000000, 110.000000)">
                    <g id="Checkbox" transform="translate(89.000000, 0.000000)">
                        <g id="icon_check" transform="translate(1.257143, 0.451924)">
                            <path d="M17.9353064,0.49908116 C17.726687,0.0818423947 17.2677243,-0.126776988 16.8504856,0.0818423947 C16.8504856,0.0818423947 16.8504856,0.0818423947 16.8504856,0.0818423947 C15.5153215,0.707700543 14.2636052,1.45873032 13.0536128,2.29320785 C13.0536128,2.29320785 12.1356875,2.96078988 11.7184488,3.33630477 C9.04812066,5.46422247 6.75330745,8.00937894 4.875733,10.8883264 L1.45437513,6.59076714 C1.16230799,6.25697612 0.619897594,6.21525225 0.286106582,6.50731938 C-0.0476844303,6.79938652 -0.0894083069,7.30007304 0.160934952,7.63386405 L4.33332261,12.8493486 C4.50021811,13.057968 4.75056137,13.1414158 5.00090463,13.1831396 L5.08435239,13.1831396 C5.37641952,13.1414158 5.62676278,13.0162441 5.75193441,12.7659009 C7.58778498,9.678334 9.96604594,6.92455815 12.7615457,4.67146882 C13.1787844,4.3376778 14.0967097,3.67009578 14.0967097,3.6283719 C14.0967097,3.6283719 14.0967097,3.6283719 14.0967097,3.6283719 C15.1815305,2.83561825 16.3497991,2.16803622 17.5597915,1.58390195 C17.9353064,1.41700644 18.1022019,0.916319926 17.9353064,0.49908116 Z"></path>
                        </g>
                    </g>
                </g>
            </g>
        </g>
    </g>
</svg>
